<?xml version="1.0" encoding="UTF-8" standalone="no"?>
<!-- Generator: Adobe Illustrator 18.1.1, SVG Export Plug-In . SVG Version: 6.00 Build 0)  -->

<svg
   xmlns:dc="http://purl.org/dc/elements/1.1/"
   xmlns:cc="http://creativecommons.org/ns#"
   xmlns:rdf="http://www.w3.org/1999/02/22-rdf-syntax-ns#"
   xmlns:svg="http://www.w3.org/2000/svg"
   xmlns="http://www.w3.org/2000/svg"
   xmlns:xlink="http://www.w3.org/1999/xlink"
   xmlns:sodipodi="http://sodipodi.sourceforge.net/DTD/sodipodi-0.dtd"
   xmlns:inkscape="http://www.inkscape.org/namespaces/inkscape"
   version="1.1"
   id="Layer_1"
   x="0px"
   y="0px"
   viewBox="-51.5 -27.5 700 700"
   enable-background="new -51.5 -27.5 700 700"
   xml:space="preserve"
   sodipodi:docname="icon.svg"
   inkscape:version="0.92.4 (5da689c313, 2019-01-14)"><metadata
   id="metadata4600"><rdf:RDF><cc:Work
       rdf:about=""><dc:format>image/svg+xml</dc:format><dc:type
         rdf:resource="http://purl.org/dc/dcmitype/StillImage" /><dc:title></dc:title></cc:Work></rdf:RDF></metadata><defs
   id="defs4598"></defs><sodipodi:namedview
   pagecolor="#ffffff"
   bordercolor="#666666"
   borderopacity="1"
   objecttolerance="10"
   gridtolerance="10"
   guidetolerance="10"
   inkscape:pageopacity="0"
   inkscape:pageshadow="2"
   inkscape:window-width="3620"
   inkscape:window-height="1942"
   id="namedview4596"
   showgrid="false"
   inkscape:zoom="2.4557143"
   inkscape:cx="350"
   inkscape:cy="350"
   inkscape:window-x="-11"
   inkscape:window-y="-9"
   inkscape:window-maximized="1"
   inkscape:current-layer="Layer_1"
   inkscape:pagecheckerboard="true" />
<g
   id="Layer_1_1_"
   style="filter:url(#filter4644)">
	<path
   fill="#ffffff"
   d="M157.9,444.6c-11,0-21.2-2.3-30.3-6.9c0,20.1,0,38.7,0,59.3c8.1,1.1,17.8,1.9,27.3,1.9   c6.5,0,12.1-0.4,18.2-0.8c0-18.2,0-36.5,0-54.4C168,444.2,162.9,444.6,157.9,444.6z"
   id="path4560" />
	<g
   id="g4572">
		<g
   id="g4570">
			<defs
   id="defs4563">
				<path
   id="SVGID_1_"
   d="M127.1,420.3c-27-12.9-44.9-44.2-47.2-87.7c-23.2,0-46.4,0-69.6,0c1.9,87,43,137.6,116.7,147.1" />
			</defs>
			<clipPath
   id="SVGID_2_">
				<use
   xlink:href="#SVGID_1_"
   overflow="visible"
   id="use4565" />
			</clipPath>
			<rect
   x="-10"
   y="327.6"
   clip-path="url(#SVGID_2_)"
   fill="#ffffff"
   width="130.5"
   height="156.8"
   id="rect4568" />
		</g>
	</g>
	<g
   id="g4584">
		<g
   id="g4582">
			<defs
   id="defs4575">
				<path
   id="SVGID_3_"
   d="M172.7,480.3c62.4-5,91.6-34.2,91.6-34.2l-20.9-57.5c0,0-27.7,30.9-70.7,37.2" />
			</defs>
			<clipPath
   id="SVGID_4_">
				<use
   xlink:href="#SVGID_3_"
   overflow="visible"
   id="use4577" />
			</clipPath>
			<rect
   x="180.2"
   y="383.2"
   clip-path="url(#SVGID_4_)"
   fill="#ffffff"
   width="86"
   height="102.2"
   id="rect4580" />
		</g>
	</g>
	<path
   fill="#ffffff"
   d="M340.8,344.6l-21.7-65.8c-27.7-86-72.2-117.1-159.7-117.1c-0.4,0-1.4,0-1.4,0c0,17.2,0,34.4,0,52.6   c1,0,2.2,0,3.3,0c58.2,0,76.8,37.4,92.5,85.7l21.3,66.1c20.8,63.1,59.9,114.3,171.2,115.4c0-17.9,0-36.1,0-53.6   C382.5,425.6,356,391.3,340.8,344.6z"
   id="path4586" />
	<path
   fill="#ffffff"
   d="M586.8,390.1c0-53.2-30.4-81.5-87.1-94.4l-42.2-9.6c-28.9-6.5-37.6-18.6-37.6-38   c0-22.5,17.9-35.8,46.7-35.8c31.6,0,48.7,11.7,51.7,40.3l66.2-8c-5.4-59.3-46.4-83.7-113.7-83.7c-59.3,0-117.5,22.5-117.5,94.3   c0,44.9,21.6,73.4,76.8,86.7l44.9,10.9c33.5,8,44.9,22.4,44.9,40.6c22.1,0,45.2,0,67.3,0C586.8,392.3,586.8,391.2,586.8,390.1z"
   id="path4588" />
	<path
   fill="#ffffff"
   d="M534.2,408.5L534.2,408.5c0,24.7-23.5,34.4-68,34.4c-1.9,0-3.8,0-4.9,0c0,18.2,0,36.4,0,53.6   c1,0,2.2,0,3.3,0c80.6,0,135.8-24.3,137.3-88C579.9,408.5,556.5,408.5,534.2,408.5z"
   id="path4590" />
	<path
   fill="#ffffff"
   d="M-4.9,311.5c0,1.9,0,3.9,0,6c23.2,0,46.4,0,69.6,0c0-2-0.4-5.5-0.4-8.1c0-79.1,39-108.5,77.5-110.5   c0-17.9,0-35,0-52.9C45.6,146.4-4.9,207.7-4.9,311.5z"
   id="path4592" />
</g>
</svg>