<?xml version="1.0" encoding="UTF-8" standalone="no"?>
<!-- Created with Inkscape (http://www.inkscape.org/) -->

<svg
   xmlns:dc="http://purl.org/dc/elements/1.1/"
   xmlns:cc="http://creativecommons.org/ns#"
   xmlns:rdf="http://www.w3.org/1999/02/22-rdf-syntax-ns#"
   xmlns:svg="http://www.w3.org/2000/svg"
   xmlns="http://www.w3.org/2000/svg"
   xmlns:sodipodi="http://sodipodi.sourceforge.net/DTD/sodipodi-0.dtd"
   xmlns:inkscape="http://www.inkscape.org/namespaces/inkscape"
   width="50mm"
   height="50mm"
   viewBox="0 0 50 50"
   version="1.1"
   id="svg238"
   sodipodi:docname="libre.fm.svg"
   inkscape:version="0.92.4 (5da689c313, 2019-01-14)">
  <defs
     id="defs232" />
  <sodipodi:namedview
     id="base"
     pagecolor="#ffffff"
     bordercolor="#666666"
     borderopacity="1.0"
     inkscape:pageopacity="0.0"
     inkscape:pageshadow="2"
     inkscape:zoom="2.8"
     inkscape:cx="24.407519"
     inkscape:cy="125.03123"
     inkscape:document-units="mm"
     inkscape:current-layer="layer1"
     showgrid="false"
     inkscape:window-width="2560"
     inkscape:window-height="1361"
     inkscape:window-x="3191"
     inkscape:window-y="-9"
     inkscape:window-maximized="1" />
  <metadata
     id="metadata235">
    <rdf:RDF>
      <cc:Work
         rdf:about="">
        <dc:format>image/svg+xml</dc:format>
        <dc:type
           rdf:resource="http://purl.org/dc/dcmitype/StillImage" />
        <dc:title></dc:title>
      </cc:Work>
    </rdf:RDF>
  </metadata>
  <g
     inkscape:label="Layer 1"
     inkscape:groupmode="layer"
     id="layer1"
     transform="translate(0,-247)">
    <path
       style="display:inline;fill:#f7a85d;stroke-width:0.18814972"
       d="m 18.875632,281.69267 c -0.06728,-0.0673 -0.631731,-0.10704 -1.254331,-0.0884 l -1.132002,0.034 v -2.99572 -2.99571 l -0.470374,-0.11805 c -0.387093,-0.0972 -0.470374,-0.23205 -0.470374,-0.76189 0,-0.35411 0.0635,-0.68023 0.141112,-0.7247 0.07761,-0.0445 0.754951,-0.13928 1.505198,-0.21065 l 1.364085,-0.12978 v 1.30843 1.30844 l 0.742497,-0.18847 c 2.766523,-0.70222 4.003292,3.76496 1.469983,5.30954 -0.59392,0.36211 -1.646223,0.50252 -1.895794,0.25295 z m 0.962733,-1.98494 c 0.259369,-0.25937 0.296366,-1.25304 0.06051,-1.62514 -0.08773,-0.13841 -0.361603,-0.22308 -0.608606,-0.18815 -0.370918,0.0525 -0.459398,0.1886 -0.508274,0.78219 -0.08535,1.03656 0.489656,1.59781 1.05637,1.0311 z m 10.883701,1.8991 c -1.547739,-0.36365 -2.379834,-1.39002 -2.378631,-2.93399 7.33e-4,-1.076 0.490957,-1.98143 1.298681,-2.39912 0.834771,-0.43168 2.100059,-0.37291 2.841469,0.13198 0.841615,0.57313 1.014313,0.90465 0.870523,1.67111 -0.104684,0.55802 -0.275943,0.72985 -1.202637,1.20665 l -1.080569,0.55597 1.002577,0.0574 1.002576,0.0574 -0.130569,0.7893 c -0.07181,0.4341 -0.168132,0.85278 -0.214044,0.9304 -0.107899,0.1824 -1.086676,0.14972 -2.009376,-0.0671 z m 0.167306,-3.48239 c 0.546108,-0.35782 0.600917,-0.63687 0.125086,-0.63687 -0.396194,0 -0.790229,0.34712 -0.790229,0.69615 0,0.31771 0.103938,0.30844 0.665143,-0.0593 z m 3.581665,3.3949 c -0.35091,-0.3509 -0.386495,-1.04344 -0.06988,-1.36005 0.291052,-0.29105 1.138885,-0.29105 1.429936,0 0.532101,0.5321 0.0469,1.65572 -0.714968,1.65572 -0.192181,0 -0.48247,-0.13305 -0.645084,-0.29567 z m 2.580901,-0.0223 c -0.06812,-0.17753 -0.02397,-0.35067 0.09998,-0.39198 0.269111,-0.0897 0.299146,-0.79524 0.03385,-0.79524 -0.103482,0 -0.188149,-0.127 -0.188149,-0.28222 0,-0.15523 0.08467,-0.28223 0.188149,-0.28223 0.103483,0 0.18815,-0.11388 0.18815,-0.25306 0,-0.13919 0.162293,-0.39994 0.360648,-0.57945 0.287713,-0.26038 0.439912,-0.28396 0.752597,-0.11661 0.508592,0.27218 0.497352,0.54258 -0.03139,0.75511 -0.32435,0.13037 -0.346348,0.17295 -0.09407,0.18208 0.407243,0.0147 0.453373,0.76453 0.04704,0.76453 -0.155223,0 -0.282224,0.127 -0.282224,0.28222 0,0.15523 0.08467,0.28223 0.188148,0.28223 0.103483,0 0.18815,0.16933 0.18815,0.37629 0,0.30527 -0.125433,0.37631 -0.664427,0.37631 -0.450244,0 -0.703766,-0.10251 -0.78645,-0.31798 z M 7.0818137,281.1719 c 0,-0.25024 -0.04739,-0.57847 -0.105297,-0.72939 -0.07006,-0.18256 0.05589,-0.31485 0.376299,-0.39527 l 0.481596,-0.12087 v -2.25421 c 0,-2.08713 -0.02643,-2.25422 -0.356537,-2.25422 -0.279326,0 -0.372281,-0.16509 -0.429241,-0.76237 -0.03999,-0.4193 -0.03477,-0.80031 0.01159,-0.84667 0.04637,-0.0463 0.703147,-0.0843 1.459515,-0.0843 h 1.3752149 l 0.05159,3.1515 c 0.05086,3.10716 0.05754,3.15236 0.4749244,3.21164 0.357014,0.0507 0.423337,0.17598 0.423337,0.79963 v 0.73951 H 8.9633077 c -1.864528,0 -1.881497,-0.004 -1.881497,-0.45498 z m 4.5155933,-0.29761 c 0,-0.67734 0.04704,-0.7526 0.470374,-0.7526 0.444718,0 0.470374,-0.0565 0.470374,-1.03483 0,-0.97837 -0.02565,-1.03482 -0.470374,-1.03482 -0.321564,0 -0.471187,-0.10417 -0.472943,-0.32926 -0.0014,-0.1811 -0.05033,-0.50719 -0.108713,-0.72466 -0.09503,-0.35401 -0.0072,-0.40711 0.838683,-0.50729 0.519654,-0.0615 1.245913,-0.0631 1.61391,-0.003 l 0.669084,0.10858 v 1.74087 c 0,1.58262 0.0342,1.7498 0.3763,1.83926 0.288235,0.0754 0.376299,0.25664 0.376299,0.77454 v 0.67614 h -1.881497 -1.881497 z m 11.100833,0 c 0,-0.62717 0.06271,-0.7526 0.3763,-0.7526 0.336999,0 0.376299,-0.12543 0.376299,-1.20103 0,-1.01631 -0.05429,-1.21522 -0.352945,-1.29333 -0.241587,-0.0632 -0.378051,-0.30734 -0.432516,-0.77388 -0.08716,-0.74659 -0.07851,-0.75297 1.315514,-0.97006 0.665736,-0.10368 0.858626,-0.0637 1.069193,0.22144 0.205887,0.27883 0.304281,0.30122 0.495365,0.11275 0.354575,-0.34973 1.304426,-0.28361 1.997646,0.13905 0.336316,0.20506 0.611485,0.42959 0.611485,0.49895 0,0.0694 -0.217997,0.41193 -0.48444,0.76125 -0.432989,0.56768 -0.553104,0.62225 -1.130961,0.51384 -0.883312,-0.1657 -1.206845,0.14725 -1.206845,1.16738 0,0.78972 0.02325,0.82364 0.564449,0.82364 0.53309,0 0.564449,0.0418 0.564449,0.7526 v 0.75259 H 24.579738 22.69824 Z m 16.431289,0.32482 c -0.07089,-0.11469 -0.02923,-0.24176 0.09257,-0.28236 0.288258,-0.0961 0.287822,-0.92973 -5.29e-4,-1.02585 -0.122099,-0.0407 -0.169102,-0.21185 -0.104451,-0.38033 0.08427,-0.2196 0.346889,-0.30374 0.927561,-0.29719 0.445507,0.005 0.893461,0.0595 0.995453,0.12092 0.101993,0.0615 0.455663,0.0885 0.785934,0.0601 0.678996,-0.0585 0.885644,0.20237 1.0602,1.33837 l 0.108346,0.70512 -1.868094,-0.0151 c -1.148464,-0.009 -1.917746,-0.0954 -1.996984,-0.22363 z m 1.631084,-0.49759 c 0,-0.36742 -0.235496,-0.76093 -0.396014,-0.66172 -0.279373,0.17266 -0.189125,0.83449 0.113789,0.83449 0.155224,0 0.282225,-0.0777 0.282225,-0.17277 z m 1.128898,-0.20353 c 0,-0.20696 -0.08467,-0.3763 -0.18815,-0.3763 -0.103481,0 -0.188149,0.16934 -0.188149,0.3763 0,0.20697 0.08467,0.3763 0.188149,0.3763 0.103482,0 0.18815,-0.16933 0.18815,-0.3763 z m -29.665087,-5.9484 c -0.286168,-0.43675 -0.291943,-0.54568 -0.05138,-0.9692 0.434782,-0.76542 0.848736,-0.93758 1.448591,-0.60246 0.573928,0.32064 0.760498,1.05439 0.426693,1.67811 -0.317485,0.59323 -1.407133,0.52963 -1.823909,-0.10645 z m 2.875888,-2.81073 c -0.174657,-0.45514 -1.301026,-1.02321 -2.030309,-1.02395 -0.467474,-4.8e-4 -0.876081,0.15492 -1.26267,0.48021 -0.47129,0.39657 -0.639258,0.44469 -0.957576,0.27433 -0.306065,-0.1638 -0.346808,-0.27989 -0.19668,-0.56041 0.827104,-1.54545 3.288472,-1.75431 4.712306,-0.39984 0.869797,0.82741 0.911366,1.01074 0.293059,1.29246 -0.360459,0.16424 -0.475998,0.15124 -0.55813,-0.0628 z m -6.7936853,-1.65857 c -0.340611,-0.24906 -0.335492,-0.29198 0.154184,-1.29284 0.594096,-1.21429 1.5516963,-1.96123 2.9939993,-2.33536 2.537941,-0.65833 4.837688,0.0389 6.090366,1.84655 0.404541,0.58375 0.477501,0.82375 0.324355,1.06695 -0.319347,0.50714 -0.695681,0.44117 -1.098007,-0.19247 -1.398612,-2.20275 -6.628611,-1.79324 -7.6184854,0.59652 -0.2658699,0.64187 -0.3508089,0.67304 -0.8464119,0.31065 z m -2.311848,-1.72863 c -0.517611,-0.36255 -0.522084,-0.62853 -0.02878,-1.7114 0.491954,-1.0799 1.696506,-2.39469 2.770597,-3.02415 2.2571343,-1.32277 5.8662633,-1.32161 8.3784923,0.003 1.302293,0.6865 2.23016,1.69673 2.974314,3.23833 l 0.544934,1.1289 -0.400015,0.32926 c -0.555729,0.45744 -0.60913,0.43323 -1.051052,-0.47638 -1.224932,-2.52127 -3.485856,-3.66758 -6.855777,-3.47592 -2.6931674,0.15316 -4.4019503,1.19981 -5.3775123,3.29378 -0.253111,0.54328 -0.477489,0.98778 -0.498619,0.98778 -0.02113,0 -0.226591,-0.1318 -0.456581,-0.29289 z"
       id="path4403"
       inkscape:connector-curvature="0" />
    <path
       style="display:inline;fill:#9a9c9d;stroke-width:0.18814972"
       d="m 18.875632,281.69267 c -0.06728,-0.0673 -0.631731,-0.10704 -1.254331,-0.0884 l -1.132002,0.034 v -2.99572 -2.99571 l -0.470374,-0.11805 c -0.387093,-0.0972 -0.470374,-0.23205 -0.470374,-0.76189 0,-0.35411 0.0635,-0.68023 0.141112,-0.7247 0.07761,-0.0445 0.754951,-0.13928 1.505198,-0.21065 l 1.364085,-0.12978 v 1.30843 1.30844 l 0.742497,-0.18847 c 2.766523,-0.70222 4.003292,3.76496 1.469983,5.30954 -0.59392,0.36211 -1.646223,0.50252 -1.895794,0.25295 z m 0.962733,-1.98494 c 0.259369,-0.25937 0.296366,-1.25304 0.06051,-1.62514 -0.08773,-0.13841 -0.361603,-0.22308 -0.608606,-0.18815 -0.370918,0.0525 -0.459398,0.1886 -0.508274,0.78219 -0.08535,1.03656 0.489656,1.59781 1.05637,1.0311 z m 10.883701,1.8991 c -1.547739,-0.36365 -2.379834,-1.39002 -2.378631,-2.93399 7.33e-4,-1.076 0.490957,-1.98143 1.298681,-2.39912 0.834771,-0.43168 2.100059,-0.37291 2.841469,0.13198 0.841615,0.57313 1.014313,0.90465 0.870523,1.67111 -0.104684,0.55802 -0.275943,0.72985 -1.202637,1.20665 l -1.080569,0.55597 1.002577,0.0574 1.002576,0.0574 -0.130569,0.7893 c -0.07181,0.4341 -0.168132,0.85278 -0.214044,0.9304 -0.107899,0.1824 -1.086676,0.14972 -2.009376,-0.0671 z m 0.167306,-3.48239 c 0.546108,-0.35782 0.600917,-0.63687 0.125086,-0.63687 -0.396194,0 -0.790229,0.34712 -0.790229,0.69615 0,0.31771 0.103938,0.30844 0.665143,-0.0593 z m 6.713807,3.55701 c -0.377904,-0.0725 -0.414792,-0.15945 -0.308321,-0.72698 0.07792,-0.41533 0.04763,-0.64466 -0.08513,-0.64466 -0.118291,0 -0.03897,-0.32058 0.186209,-0.7526 0.279446,-0.53613 0.513086,-0.7526 0.812295,-0.7526 0.231009,0 0.470631,0.0506 0.532489,0.11247 0.204308,0.20431 -0.07565,0.61838 -0.347549,0.51404 -0.14666,-0.0563 -0.266653,-0.0177 -0.266653,0.0858 0,0.10348 0.127001,0.23688 0.282225,0.29645 0.155223,0.0596 0.282224,0.19563 0.282224,0.30235 0,0.10673 -0.127001,0.19406 -0.282224,0.19406 -0.329332,0 -0.377171,0.58239 -0.07284,0.88673 0.206597,0.20659 0.07903,0.6426 -0.173453,0.59284 -0.07151,-0.0141 -0.323176,-0.0627 -0.559271,-0.10793 z M 7.0818137,281.17187 c 0,-0.25024 -0.04739,-0.57847 -0.105297,-0.72939 -0.07006,-0.18256 0.05589,-0.31485 0.376299,-0.39527 l 0.481596,-0.12087 v -2.25421 c 0,-2.08713 -0.02643,-2.25422 -0.356537,-2.25422 -0.279326,0 -0.372281,-0.16509 -0.429241,-0.76237 -0.03999,-0.4193 -0.03477,-0.80031 0.01159,-0.84667 0.04637,-0.0463 0.703147,-0.0843 1.459515,-0.0843 h 1.3752149 l 0.05159,3.1515 c 0.05086,3.10716 0.05754,3.15236 0.4749244,3.21164 0.357014,0.0507 0.423337,0.17598 0.423337,0.79963 v 0.73951 H 8.9633077 c -1.864528,0 -1.881497,-0.004 -1.881497,-0.45498 z m 4.5155933,-0.29761 c 0,-0.67734 0.04704,-0.7526 0.470374,-0.7526 0.444718,0 0.470374,-0.0565 0.470374,-1.03483 0,-0.97837 -0.02565,-1.03482 -0.470374,-1.03482 -0.321564,0 -0.471187,-0.10417 -0.472943,-0.32926 -0.0014,-0.1811 -0.05033,-0.50719 -0.108713,-0.72466 -0.09503,-0.35401 -0.0072,-0.40711 0.838683,-0.50729 0.519654,-0.0615 1.245913,-0.0631 1.61391,-0.003 l 0.669084,0.10858 v 1.74087 c 0,1.58262 0.0342,1.7498 0.3763,1.83926 0.288235,0.0754 0.376299,0.25664 0.376299,0.77454 v 0.67614 h -1.881497 -1.881497 z m 11.100833,0 c 0,-0.62717 0.06271,-0.7526 0.3763,-0.7526 0.336999,0 0.376299,-0.12543 0.376299,-1.20103 0,-1.01631 -0.05429,-1.21522 -0.352945,-1.29333 -0.241587,-0.0632 -0.378051,-0.30734 -0.432516,-0.77388 -0.08716,-0.74659 -0.07851,-0.75297 1.315514,-0.97006 0.665736,-0.10368 0.858626,-0.0637 1.069193,0.22144 0.205887,0.27883 0.304281,0.30122 0.495365,0.11275 0.354575,-0.34973 1.304426,-0.28361 1.997646,0.13905 0.336316,0.20506 0.611485,0.42959 0.611485,0.49895 0,0.0694 -0.217997,0.41193 -0.48444,0.76125 -0.432989,0.56768 -0.553104,0.62225 -1.130961,0.51384 -0.883312,-0.1657 -1.206845,0.14725 -1.206845,1.16738 0,0.78972 0.02325,0.82364 0.564449,0.82364 0.53309,0 0.564449,0.0418 0.564449,0.7526 v 0.75259 H 24.579738 22.69824 Z m 11.702913,0.52682 c -0.124179,-0.12418 -0.22578,-0.40359 -0.22578,-0.6209 0,-0.85331 0.989797,-1.14384 1.599965,-0.46961 0.281954,0.31156 0.304065,0.45865 0.127267,0.84667 -0.235275,0.51638 -1.090091,0.6552 -1.501452,0.24384 z m 4.958592,-0.60939 c 0.08182,-0.43616 0.04305,-0.77467 -0.109816,-0.95887 -0.4053,-0.48835 -0.302849,-0.51423 1.829492,-0.46199 0.641014,0.0157 1.243296,0.12757 1.338398,0.24858 0.09511,0.12101 0.22781,0.57986 0.294904,1.01966 0.120628,0.79075 0.115688,0.79963 -0.444689,0.79963 -0.59364,0 -0.707295,-0.16041 -0.359833,-0.50787 0.113762,-0.11376 0.148976,-0.38916 0.07825,-0.61199 -0.203401,-0.64086 -0.713174,-0.10867 -0.560731,0.58539 0.105016,0.47814 0.06682,0.53447 -0.362309,0.53447 -0.433915,0 -0.475746,-0.0654 -0.438287,-0.68505 0.02624,-0.43405 -0.05105,-0.71766 -0.210932,-0.774 -0.189325,-0.0667 -0.236312,0.0926 -0.188148,0.63802 0.05961,0.67513 0.02652,0.73128 -0.46429,0.78756 -0.511532,0.0587 -0.524426,0.039 -0.402011,-0.61354 z M 12.491118,274.8384 c -0.383204,-0.2232 -0.450708,-1.29343 -0.103482,-1.64065 0.337397,-0.3374 1.178867,-0.27244 1.532482,0.11829 0.87689,0.96896 -0.274031,2.19506 -1.429,1.52236 z m 2.681133,-3.18624 c 0,-0.39136 -1.222893,-0.93658 -2.102248,-0.93728 -0.663281,-5.3e-4 -1.016139,0.11446 -1.436422,0.4681 -0.473352,0.3983 -0.590678,0.4284 -0.780091,0.20017 -0.31117,-0.37493 0.03035,-0.95746 0.796532,-1.35864 1.290064,-0.67548 3.480336,-0.17695 4.084036,0.92957 0.253044,0.46381 0.25334,0.54231 0.0027,0.70268 -0.366956,0.23475 -0.56445,0.23314 -0.56445,-0.005 z m -6.7098803,-1.5603 c -0.38226,-0.21079 -0.391645,-0.26846 -0.155183,-0.95348 0.61197,-1.77289 2.4119763,-2.78837 4.9100083,-2.77004 2.273449,0.0167 3.420348,0.59856 4.445847,2.25556 0.382817,0.61855 0.384191,0.64564 0.04533,0.89342 -0.312406,0.22844 -0.409117,0.18316 -0.912067,-0.42701 -0.798305,-0.96848 -1.814367,-1.37741 -3.434853,-1.3824 -2.137348,-0.007 -3.6933764,0.75869 -4.2734216,2.10172 -0.1940897,0.44941 -0.2647227,0.48127 -0.6256557,0.28223 z m 10.7102073,-2.38423 c -0.56734,-1.18211 -1.62002,-2.21039 -2.871428,-2.80488 -0.945119,-0.44898 -1.238698,-0.49146 -3.386695,-0.49007 -1.988687,10e-4 -2.484094,0.0625 -3.2081044,0.39617 -1.2380609,0.57066 -2.1620429,1.45827 -2.7331489,2.62557 -0.274998,0.56208 -0.53796,1.02196 -0.584361,1.02196 -0.273082,0 -0.812225,-0.42883 -0.812225,-0.64604 0,-0.40859 1.106174,-2.40692 1.659073,-2.99717 2.0664759,-2.20608 6.4951003,-2.80693 9.5746063,-1.29905 1.210404,0.59268 2.705021,2.14609 3.249785,3.37762 0.482294,1.0903 0.477078,1.27297 -0.04297,1.50478 -0.383904,0.17112 -0.462571,0.10696 -0.844528,-0.68889 z"
       id="path4401"
       inkscape:connector-curvature="0" />
    <path
       style="display:inline;fill:#f48c26;stroke-width:0.18814972"
       d="m 19.02932,281.68063 c -0.206964,-0.0519 -0.482133,-0.18019 -0.611486,-0.28521 -0.16187,-0.13142 -0.235187,-0.1251 -0.235187,0.0203 0,0.1247 -0.344869,0.21119 -0.842013,0.21119 h -0.842013 l -0.0517,-3.05743 c -0.05152,-3.04709 -0.05319,-3.05765 -0.492943,-3.1199 -0.350669,-0.0497 -0.418786,-0.1462 -0.331831,-0.47038 0.06018,-0.22435 0.11057,-0.55607 0.111983,-0.73717 0.0022,-0.28197 0.191698,-0.32926 1.319617,-0.32926 h 1.317048 v 1.20513 1.20514 l 1.081861,-0.0881 c 1.82337,-0.14852 2.677461,0.73047 2.679791,2.7579 0.0019,1.68645 -1.591412,3.06658 -3.103128,2.68788 z m 0.920619,-2.04473 c 0.30474,-0.79414 -0.06931,-1.96019 -0.628795,-1.96019 -0.472179,0 -0.835901,1.0987 -0.583496,1.76257 0.214793,0.56495 1.020907,0.69635 1.212291,0.19762 z m 17.65324,2.04555 c -0.377904,-0.0725 -0.414792,-0.15945 -0.308321,-0.72698 0.07792,-0.41533 0.04763,-0.64466 -0.08513,-0.64466 -0.118291,0 -0.03897,-0.32058 0.186209,-0.7526 0.279446,-0.53613 0.513086,-0.7526 0.812295,-0.7526 0.231009,0 0.470631,0.0506 0.532489,0.11247 0.204308,0.20431 -0.07565,0.61838 -0.347549,0.51404 -0.14666,-0.0563 -0.266653,-0.0177 -0.266653,0.0858 0,0.10348 0.127001,0.23688 0.282225,0.29645 0.155223,0.0596 0.282224,0.19563 0.282224,0.30235 0,0.10673 -0.127001,0.19406 -0.282224,0.19406 -0.329332,0 -0.377171,0.58239 -0.07284,0.88673 0.206597,0.20659 0.07903,0.6426 -0.173453,0.59284 -0.07151,-0.0141 -0.323176,-0.0627 -0.559271,-0.10793 z m -30.5213653,-0.7868 c 0,-0.6241 0.06944,-0.74963 0.470374,-0.85026 0.434494,-0.10904 0.470374,-0.20179 0.470374,-1.21577 0,-2.15174 -0.207213,-3.3718 -0.589647,-3.47181 -0.258014,-0.0675 -0.351101,-0.26574 -0.351101,-0.74782 0,-0.78494 0.192216,-0.88442 1.708735,-0.88442 h 1.1135099 v 3.19854 3.19855 h 0.4703754 c 0.423337,0 0.470374,0.0753 0.470374,0.7526 v 0.75259 H 8.9633107 7.0818137 Z m 4.5155933,0.0868 c 0,-0.5261 0.07828,-0.65656 0.423337,-0.70556 0.375017,-0.0533 0.429777,-0.18361 0.479763,-1.14199 0.05471,-1.04895 0.04183,-1.08186 -0.423336,-1.08186 -0.434291,0 -0.479764,-0.0713 -0.479764,-0.7526 v -0.7526 h 1.411122 1.411124 v 1.78384 c 0,1.74584 0.01002,1.78635 0.470374,1.9019 0.386068,0.0969 0.470374,0.23243 0.470374,0.75618 v 0.63812 h -1.881497 -1.881497 z m 11.219421,0.2221 c -0.207746,-0.7752 -0.134696,-1.08186 0.257712,-1.08186 0.339853,0 0.376299,-0.12543 0.376299,-1.2951 0,-1.13687 -0.04597,-1.30713 -0.376299,-1.39352 -0.272482,-0.0713 -0.3763,-0.25663 -0.3763,-0.67193 0,-0.51617 0.07059,-0.58546 0.705561,-0.69258 0.388059,-0.0655 0.848572,-0.15803 1.023366,-0.20571 0.187582,-0.0512 0.399237,0.0655 0.516543,0.28466 0.186834,0.34911 0.233814,0.35386 0.784097,0.0793 0.476392,-0.23765 0.717569,-0.2524 1.295596,-0.0792 1.081017,0.32388 1.201688,0.5844 0.648074,1.39911 -0.525233,0.77296 -0.52351,0.77214 -1.041569,0.49488 -0.809321,-0.43314 -1.582798,0.41875 -1.365715,1.50417 0.08487,0.42433 0.227812,0.56857 0.606986,0.61251 0.424833,0.0492 0.504357,0.15867 0.554376,0.76302 l 0.05839,0.70556 h -1.776831 c -1.683596,0 -1.782789,-0.0222 -1.890286,-0.42333 z m 7.313325,0.15562 c -1.621483,-0.72677 -2.235891,-2.39926 -1.472433,-4.00812 0.346404,-0.73 1.448327,-1.35737 2.396651,-1.36452 0.625328,-0.005 2.08102,0.78294 2.247167,1.21591 0.284605,0.74166 -0.09928,1.40486 -1.172214,2.02514 l -1.058422,0.61188 0.940748,0.0941 0.940749,0.0941 -0.06567,0.65852 c -0.03612,0.36218 -0.104615,0.72202 -0.152218,0.79964 -0.143723,0.23432 -2.000456,0.14406 -2.604363,-0.12661 z m 0.864683,-3.25362 c 0.657869,-0.38861 0.700067,-0.61795 0.113696,-0.61795 -0.478785,0 -0.884303,0.31923 -0.884303,0.69615 0,0.32061 0.115264,0.30892 0.770607,-0.0782 z m 3.406317,3.29556 c -0.124179,-0.12418 -0.22578,-0.40359 -0.22578,-0.6209 0,-0.85331 0.989797,-1.14384 1.599965,-0.46961 0.281954,0.31156 0.304065,0.45865 0.127267,0.84667 -0.235275,0.51638 -1.090091,0.6552 -1.501452,0.24384 z m 4.958592,-0.60939 c 0.08182,-0.43616 0.04305,-0.77467 -0.109816,-0.95887 -0.4053,-0.48835 -0.302849,-0.51423 1.829492,-0.46199 0.641014,0.0157 1.243296,0.12757 1.338398,0.24858 0.09511,0.12101 0.22781,0.57986 0.294904,1.01966 0.120628,0.79075 0.115688,0.79963 -0.444689,0.79963 -0.59364,0 -0.707295,-0.16041 -0.359833,-0.50787 0.113762,-0.11376 0.148976,-0.38916 0.07825,-0.61199 -0.203401,-0.64086 -0.713174,-0.10867 -0.560731,0.58539 0.105016,0.47814 0.06682,0.53447 -0.362309,0.53447 -0.433915,0 -0.475746,-0.0654 -0.438287,-0.68505 0.02624,-0.43405 -0.05105,-0.71766 -0.210932,-0.774 -0.189325,-0.0667 -0.236312,0.0926 -0.188148,0.63802 0.05961,0.67513 0.02652,0.73128 -0.46429,0.78756 -0.511532,0.0587 -0.524426,0.039 -0.402011,-0.61354 z m -26.868627,-5.95329 c -0.383204,-0.2232 -0.450708,-1.29343 -0.103482,-1.64065 0.337397,-0.3374 1.178867,-0.27244 1.532482,0.11829 0.87689,0.96896 -0.274031,2.19506 -1.429,1.52236 z m 2.681133,-3.18624 c 0,-0.39136 -1.222893,-0.93658 -2.102248,-0.93728 -0.663281,-5.3e-4 -1.016139,0.11446 -1.436422,0.4681 -0.473352,0.3983 -0.590678,0.4284 -0.780091,0.20017 -0.31117,-0.37493 0.03035,-0.95746 0.796532,-1.35864 1.290064,-0.67548 3.480336,-0.17695 4.084036,0.92957 0.253044,0.46381 0.25334,0.54231 0.0027,0.70268 -0.366956,0.23475 -0.56445,0.23314 -0.56445,-0.005 z m -6.7098803,-1.5603 c -0.38226,-0.21079 -0.391645,-0.26846 -0.155183,-0.95348 0.61197,-1.77289 2.4119763,-2.78837 4.9100083,-2.77004 2.273449,0.0167 3.420348,0.59856 4.445847,2.25556 0.382817,0.61855 0.384191,0.64564 0.04533,0.89342 -0.312406,0.22844 -0.409117,0.18316 -0.912067,-0.42701 -0.798305,-0.96848 -1.814367,-1.37741 -3.434853,-1.3824 -2.137348,-0.007 -3.6933764,0.75869 -4.2734216,2.10172 -0.1940897,0.44941 -0.2647227,0.48127 -0.6256557,0.28223 z m 10.7102073,-2.38423 c -0.56734,-1.18211 -1.62002,-2.21039 -2.871428,-2.80488 -0.945119,-0.44898 -1.238698,-0.49146 -3.386695,-0.49007 -1.988687,10e-4 -2.484094,0.0625 -3.2081044,0.39617 -1.2380609,0.57066 -2.1620429,1.45827 -2.7331489,2.62557 -0.274998,0.56208 -0.53796,1.02196 -0.584361,1.02196 -0.273082,0 -0.812225,-0.42883 -0.812225,-0.64604 0,-0.40859 1.106174,-2.40692 1.659073,-2.99717 2.0664759,-2.20608 6.4951003,-2.80693 9.5746063,-1.29905 1.210404,0.59268 2.705021,2.14609 3.249785,3.37762 0.482294,1.0903 0.477078,1.27297 -0.04297,1.50478 -0.383904,0.17112 -0.462571,0.10696 -0.844528,-0.68889 z"
       id="path4399"
       inkscape:connector-curvature="0" />
    <path
       style="display:inline;fill:#f37800;stroke-width:0.18814972"
       d="m 19.02932,281.68063 c -0.206964,-0.0519 -0.482133,-0.18019 -0.611486,-0.28521 -0.16187,-0.13142 -0.235187,-0.1251 -0.235187,0.0203 0,0.1247 -0.344869,0.21119 -0.842013,0.21119 h -0.842013 l -0.0517,-3.05743 c -0.05152,-3.04709 -0.05319,-3.05765 -0.492943,-3.1199 -0.350669,-0.0497 -0.418786,-0.1462 -0.331831,-0.47038 0.06018,-0.22435 0.11057,-0.55607 0.111983,-0.73717 0.0022,-0.28197 0.191698,-0.32926 1.319617,-0.32926 h 1.317048 v 1.20513 1.20514 l 1.081861,-0.0881 c 1.82337,-0.14852 2.677461,0.73047 2.679791,2.7579 0.0019,1.68645 -1.591412,3.06658 -3.103128,2.68788 z m 0.920619,-2.04473 c 0.30474,-0.79414 -0.06931,-1.96019 -0.628795,-1.96019 -0.472179,0 -0.835901,1.0987 -0.583496,1.76257 0.214793,0.56495 1.020907,0.69635 1.212291,0.19762 z m -12.8681253,1.25875 c 0,-0.6241 0.06944,-0.74963 0.470374,-0.85026 0.434494,-0.10904 0.470374,-0.20179 0.470374,-1.21577 0,-2.15174 -0.207213,-3.3718 -0.589647,-3.47181 -0.258014,-0.0675 -0.351101,-0.26574 -0.351101,-0.74782 0,-0.78494 0.192216,-0.88442 1.708735,-0.88442 h 1.1135099 v 3.19854 3.19855 h 0.4703754 c 0.423337,0 0.470374,0.0753 0.470374,0.7526 v 0.75259 H 8.9633107 7.0818137 Z m 4.5155933,0.0868 c 0,-0.5261 0.07828,-0.65656 0.423337,-0.70556 0.375017,-0.0533 0.429777,-0.18361 0.479763,-1.14199 0.05471,-1.04895 0.04183,-1.08186 -0.423336,-1.08186 -0.434291,0 -0.479764,-0.0713 -0.479764,-0.7526 v -0.7526 h 1.411122 1.411124 v 1.78384 c 0,1.74584 0.01002,1.78635 0.470374,1.9019 0.386068,0.0969 0.470374,0.23243 0.470374,0.75618 v 0.63812 h -1.881497 -1.881497 z m 11.219421,0.2221 c -0.207746,-0.7752 -0.134696,-1.08186 0.257712,-1.08186 0.339853,0 0.376299,-0.12543 0.376299,-1.2951 0,-1.13687 -0.04597,-1.30713 -0.376299,-1.39352 -0.272482,-0.0713 -0.3763,-0.25663 -0.3763,-0.67193 0,-0.51617 0.07059,-0.58546 0.705561,-0.69258 0.388059,-0.0655 0.848572,-0.15803 1.023366,-0.20571 0.187582,-0.0512 0.399237,0.0655 0.516543,0.28466 0.186834,0.34911 0.233814,0.35386 0.784097,0.0793 0.476392,-0.23765 0.717569,-0.2524 1.295596,-0.0792 1.081017,0.32388 1.201688,0.5844 0.648074,1.39911 -0.525233,0.77296 -0.52351,0.77214 -1.041569,0.49488 -0.809321,-0.43314 -1.582798,0.41875 -1.365715,1.50417 0.08487,0.42433 0.227812,0.56857 0.606986,0.61251 0.424833,0.0492 0.504357,0.15867 0.554376,0.76302 l 0.05839,0.70556 h -1.776831 c -1.683596,0 -1.782789,-0.0222 -1.890286,-0.42333 z m 7.313325,0.15562 c -1.621483,-0.72677 -2.235891,-2.39926 -1.472433,-4.00812 0.346404,-0.73 1.448327,-1.35737 2.396651,-1.36452 0.625328,-0.005 2.08102,0.78294 2.247167,1.21591 0.284605,0.74166 -0.09928,1.40486 -1.172214,2.02514 l -1.058422,0.61188 0.940748,0.0941 0.940749,0.0941 -0.06567,0.65852 c -0.03612,0.36218 -0.104615,0.72202 -0.152218,0.79964 -0.143723,0.23432 -2.000456,0.14406 -2.604363,-0.12661 z m 0.864683,-3.25362 c 0.657869,-0.38861 0.700067,-0.61795 0.113696,-0.61795 -0.478785,0 -0.884303,0.31923 -0.884303,0.69615 0,0.32061 0.115264,0.30892 0.770607,-0.0782 z m 3.359356,3.22787 c -0.41052,-0.49465 -0.0071,-1.3058 0.649436,-1.3058 0.673095,0 1.087716,0.57141 0.853256,1.17593 -0.196721,0.50721 -1.123075,0.58727 -1.502692,0.12987 z m 2.911909,-0.64741 c -0.0076,-0.51735 0.05005,-0.94062 0.128026,-0.94062 0.07797,0 0.168824,-0.1905 0.201893,-0.42334 0.06736,-0.4743 0.808603,-0.69087 1.160438,-0.33903 0.154889,0.15489 0.09964,0.23917 -0.20985,0.3201 -0.474334,0.12404 -0.521094,0.26601 -0.195017,0.59208 0.174667,0.17467 0.143063,0.28588 -0.141112,0.49655 -0.31168,0.23106 -0.33118,0.32881 -0.131,0.65667 0.326382,0.53458 0.304952,0.57848 -0.282224,0.57834 -0.493601,-1.3e-4 -0.518045,-0.0434 -0.531154,-0.94075 z m 3.555185,0.63266 c -0.140165,-0.0572 -0.18296,-0.32817 -0.116494,-0.73774 0.08122,-0.50049 0.03999,-0.64739 -0.181655,-0.64739 -0.351325,0 -0.562511,0.49504 -0.412636,0.96725 0.08834,0.27835 0.01332,0.3498 -0.36733,0.3498 -0.42664,0 -0.466641,-0.0585 -0.370056,-0.54147 0.05956,-0.2978 0.01611,-0.71372 -0.09658,-0.92427 -0.198897,-0.37165 -0.158121,-0.38227 1.398153,-0.36435 0.886826,0.0102 1.673077,0.10792 1.759816,0.21871 0.08623,0.11014 0.202499,0.56009 0.258367,0.99989 0.09462,0.7448 0.07094,0.79963 -0.345261,0.79963 -0.398284,0 -0.442347,-0.0767 -0.405435,-0.70555 0.03053,-0.52014 -0.03276,-0.70556 -0.240813,-0.70556 -0.208056,0 -0.271342,0.18542 -0.240812,0.70556 0.04049,0.6899 -0.09006,0.80948 -0.639264,0.58549 z M 12.45752,274.74598 c -0.349894,-0.34989 -0.389555,-1.22853 -0.06989,-1.5482 0.337398,-0.3374 1.178868,-0.27244 1.532482,0.11829 0.881778,0.97436 -0.534008,2.3585 -1.462597,1.42991 z m 2.419381,-3.41374 c -0.316133,-0.39565 -0.593334,-0.50429 -1.472857,-0.57723 -0.909868,-0.0754 -1.173569,-0.0232 -1.646093,0.32615 -0.524632,0.38788 -1.101293,0.41429 -1.101293,0.0505 0,-0.0874 0.255471,-0.40361 0.567714,-0.70276 0.477764,-0.45772 0.75351,-0.55453 1.740384,-0.61097 1.347328,-0.0771 2.22168,0.28776 2.739881,1.14319 0.277079,0.4574 0.280875,0.53999 0.03206,0.69755 -0.383184,0.24265 -0.414695,0.23069 -0.8598,-0.32638 z m -6.4434643,-1.25806 -0.399436,-0.21377 0.444408,-0.95921 c 0.7878349,-1.70046 2.3459193,-2.51444 4.8130233,-2.51444 2.103471,0 3.300655,0.59321 4.258098,2.10989 0.448044,0.70975 0.454444,0.75802 0.131789,0.99394 -0.296373,0.21672 -0.385296,0.18299 -0.705416,-0.26762 -0.7714,-1.08583 -1.54895,-1.41611 -3.496999,-1.48542 -1.66312,-0.0592 -1.858429,-0.0264 -2.808473,0.47139 -0.7464344,0.39109 -1.1308534,0.74262 -1.4293054,1.307 -0.3675439,0.69503 -0.4480829,0.75069 -0.8076889,0.55824 z m -2.433484,-1.85802 c -0.232835,-0.10646 -0.423337,-0.25494 -0.423337,-0.32998 0,-0.355 0.67022,-1.68178 1.249418,-2.47336 1.323991,-1.80947 3.3049943,-2.64064 6.2769303,-2.63361 3.305538,0.008 5.520026,1.3224 6.936142,4.11746 0.478594,0.94463 0.503528,1.29211 0.103725,1.44553 -0.509642,0.19557 -0.593618,0.13585 -0.905694,-0.64411 -0.387425,-0.96826 -1.786743,-2.37126 -2.804968,-2.81233 -3.019474,-1.30796 -6.8297214,-0.71852 -8.6835013,1.34333 -0.454998,0.50606 -0.882357,1.17093 -0.949686,1.47748 -0.150522,0.68532 -0.260831,0.75567 -0.799029,0.50959 z"
       id="path4397"
       inkscape:connector-curvature="0" />
    <path
       style="display:inline;fill:#5c6162;stroke-width:0.18814972"
       d="m 19.02932,281.68063 c -0.206964,-0.0519 -0.482133,-0.18019 -0.611486,-0.28521 -0.16187,-0.13142 -0.235187,-0.1251 -0.235187,0.0203 0,0.1247 -0.344869,0.21119 -0.842013,0.21119 h -0.842013 l -0.0517,-3.05743 c -0.05152,-3.04709 -0.05319,-3.05765 -0.492943,-3.1199 -0.350669,-0.0497 -0.418786,-0.1462 -0.331831,-0.47038 0.06018,-0.22435 0.11057,-0.55607 0.111983,-0.73717 0.0022,-0.28197 0.191698,-0.32926 1.319617,-0.32926 h 1.317048 v 1.20513 1.20514 l 1.081861,-0.0881 c 1.82337,-0.14852 2.677461,0.73047 2.679791,2.7579 0.0019,1.68645 -1.591412,3.06658 -3.103128,2.68788 z m 0.920619,-2.04473 c 0.30474,-0.79414 -0.06931,-1.96019 -0.628795,-1.96019 -0.472179,0 -0.835901,1.0987 -0.583496,1.76257 0.214793,0.56495 1.020907,0.69635 1.212291,0.19762 z m -12.8681253,1.25875 c 0,-0.6241 0.06944,-0.74963 0.470374,-0.85026 0.434494,-0.10904 0.470374,-0.20179 0.470374,-1.21577 0,-2.15174 -0.207213,-3.3718 -0.589647,-3.47181 -0.258014,-0.0675 -0.351101,-0.26574 -0.351101,-0.74782 0,-0.78494 0.192216,-0.88442 1.708735,-0.88442 h 1.1135099 v 3.19854 3.19855 h 0.4703754 c 0.423337,0 0.470374,0.0753 0.470374,0.7526 v 0.75259 H 8.9633107 7.0818137 Z m 4.5155933,0.0868 c 0,-0.5261 0.07828,-0.65656 0.423337,-0.70556 0.375017,-0.0533 0.429777,-0.18361 0.479763,-1.14199 0.05471,-1.04895 0.04183,-1.08186 -0.423336,-1.08186 -0.434291,0 -0.479764,-0.0713 -0.479764,-0.7526 v -0.7526 h 1.411122 1.411124 v 1.78384 c 0,1.74584 0.01002,1.78635 0.470374,1.9019 0.386068,0.0969 0.470374,0.23243 0.470374,0.75618 v 0.63812 h -1.881497 -1.881497 z m 11.219421,0.2221 c -0.207746,-0.7752 -0.134696,-1.08186 0.257712,-1.08186 0.339853,0 0.376299,-0.12543 0.376299,-1.2951 0,-1.13687 -0.04597,-1.30713 -0.376299,-1.39352 -0.272482,-0.0713 -0.3763,-0.25663 -0.3763,-0.67193 0,-0.51617 0.07059,-0.58546 0.705561,-0.69258 0.388059,-0.0655 0.848572,-0.15803 1.023366,-0.20571 0.187582,-0.0512 0.399237,0.0655 0.516543,0.28466 0.186834,0.34911 0.233814,0.35386 0.784097,0.0793 0.476392,-0.23765 0.717569,-0.2524 1.295596,-0.0792 1.081017,0.32388 1.201688,0.5844 0.648074,1.39911 -0.525233,0.77296 -0.52351,0.77214 -1.041569,0.49488 -0.809321,-0.43314 -1.582798,0.41875 -1.365715,1.50417 0.08487,0.42433 0.227812,0.56857 0.606986,0.61251 0.424833,0.0492 0.504357,0.15867 0.554376,0.76302 l 0.05839,0.70556 h -1.776831 c -1.683596,0 -1.782789,-0.0222 -1.890286,-0.42333 z m 7.313325,0.15562 c -1.621483,-0.72677 -2.235891,-2.39926 -1.472433,-4.00812 0.346404,-0.73 1.448327,-1.35737 2.396651,-1.36452 0.625328,-0.005 2.08102,0.78294 2.247167,1.21591 0.284605,0.74166 -0.09928,1.40486 -1.172214,2.02514 l -1.058422,0.61188 0.940748,0.0941 0.940749,0.0941 -0.06567,0.65852 c -0.03612,0.36218 -0.104615,0.72202 -0.152218,0.79964 -0.143723,0.23432 -2.000456,0.14406 -2.604363,-0.12661 z m 0.864683,-3.25362 c 0.657869,-0.38861 0.700067,-0.61795 0.113696,-0.61795 -0.478785,0 -0.884303,0.31923 -0.884303,0.69615 0,0.32061 0.115264,0.30892 0.770607,-0.0782 z m 3.359356,3.22787 c -0.41052,-0.49465 -0.0071,-1.3058 0.649436,-1.3058 0.673095,0 1.087716,0.57141 0.853256,1.17593 -0.196721,0.50721 -1.123075,0.58727 -1.502692,0.12987 z M 12.45752,274.74598 c -0.349894,-0.34989 -0.389555,-1.22853 -0.06989,-1.5482 0.337398,-0.3374 1.178868,-0.27244 1.532482,0.11829 0.881778,0.97436 -0.534008,2.3585 -1.462597,1.42991 z"
       id="path4395"
       inkscape:connector-curvature="0" />
    <path
       style="display:inline;fill:#cb0303;stroke-width:0.18814972"
       d="m 7.2072467,281.50142 c -0.06899,-0.069 -0.125433,-0.40176 -0.125433,-0.73951 0,-0.49358 0.08307,-0.62588 0.423337,-0.6742 0.40873,-0.0581 0.425146,-0.13803 0.475788,-2.31802 0.05095,-2.19317 0.04017,-2.26327 -0.376299,-2.44594 -0.289955,-0.12718 -0.447221,-0.37775 -0.485806,-0.77402 -0.0511,-0.52482 0.0053,-0.59845 0.54093,-0.70557 0.328892,-0.0658 0.968405,-0.11959 1.42114,-0.11959 h 0.8231549 v 3.18546 c 0,3.16019 0.0034,3.18593 0.4233374,3.24558 0.340049,0.0483 0.434826,0.19893 0.481732,0.76568 l 0.0584,0.70556 H 9.1001012 c -0.9720815,0 -1.8238665,-0.0565 -1.8928545,-0.12543 z m 4.5043653,-0.17218 c -0.252308,-0.6575 -0.125857,-1.01943 0.356169,-1.01943 0.448856,0 0.470374,-0.0511 0.470374,-1.11582 0,-1.01389 -0.03867,-1.1213 -0.423336,-1.17593 -0.340049,-0.0483 -0.434826,-0.19894 -0.481732,-0.76568 l -0.05839,-0.70557 h 1.42248 1.422481 v 1.8815 1.8815 h 0.470374 c 0.412138,0 0.470374,0.0815 0.470374,0.65852 v 0.65852 h -1.767292 c -1.437973,0 -1.788573,-0.0555 -1.881497,-0.29761 z m 5.012874,0.17301 c -0.174324,-0.0704 -0.235187,-0.86989 -0.235187,-3.08962 0,-2.86928 -0.01576,-2.99472 -0.376299,-2.99472 -0.301968,0 -0.376299,-0.12543 -0.376299,-0.635 0,-0.56069 0.06881,-0.64877 0.587967,-0.7526 0.323382,-0.0647 0.916054,-0.11759 1.317049,-0.11759 h 0.72908 v 1.33717 c 0,1.20251 0.03316,1.32279 0.329261,1.19431 1.250055,-0.54243 2.648034,-0.12426 3.090887,0.92456 0.353811,0.83794 0.284474,2.56807 -0.128156,3.19782 -0.185612,0.28329 -0.574701,0.63774 -0.864642,0.78766 -0.638677,0.33028 -2.07807,0.35849 -2.38972,0.0468 -0.175607,-0.1756 -0.22578,-0.1756 -0.22578,0 0,0.22366 -0.985201,0.29202 -1.458161,0.10117 z m 3.412398,-2.20924 c 0.142114,-0.56623 -0.151805,-1.3991 -0.547298,-1.55086 -0.458873,-0.17609 -1.03064,0.47578 -1.03064,1.17503 0,1.18314 1.297738,1.49223 1.577938,0.37583 z m 2.749506,1.58125 c 0,-0.54354 0.0784,-0.7526 0.282225,-0.7526 0.223987,0 0.282224,-0.27178 0.282224,-1.31705 0,-1.01254 -0.06179,-1.31704 -0.267275,-1.31704 -0.2316,0 -0.633457,-1.06461 -0.456191,-1.20855 0.03572,-0.029 0.512648,-0.1384 1.059844,-0.2431 0.892558,-0.17079 1.014336,-0.15406 1.183835,0.16265 0.148221,0.27695 0.265653,0.31197 0.544965,0.16249 0.556904,-0.29805 1.552181,-0.22206 2.136374,0.16311 l 0.532635,0.35118 -0.596886,0.67981 c -0.485128,0.55253 -0.661802,0.64507 -0.943602,0.49426 -0.499008,-0.26707 -0.700428,-0.23289 -1.124053,0.19074 -0.235045,0.23505 -0.376299,0.62716 -0.376299,1.04461 0,0.56828 0.08167,0.69678 0.545601,0.85851 0.495581,0.17276 0.761851,0.60509 0.768878,1.24839 0.0019,0.17182 -0.478977,0.23518 -1.784853,0.23518 H 22.88639 Z m 7.228974,0.3958 c -0.422061,-0.19169 -0.949008,-0.57942 -1.17099,-0.86162 -0.823025,-1.04631 -0.713661,-2.77283 0.231909,-3.66115 1.386677,-1.30272 4.376356,-0.39826 4.114727,1.24481 -0.07903,0.4963 -0.268777,0.68924 -1.110228,1.1289 -1.090831,0.56995 -1.266038,0.81099 -0.592469,0.81508 1.15725,0.007 1.519953,0.44421 1.155805,1.39316 -0.160262,0.41764 -1.652883,0.38404 -2.628754,-0.0592 z m 1.425912,-3.61293 c 0,-0.19362 -0.577432,-0.22498 -1.019434,-0.0553 -0.163689,0.0628 -0.297613,0.31397 -0.297613,0.55811 v 0.44389 l 0.658523,-0.38853 c 0.362188,-0.2137 0.658524,-0.46485 0.658524,-0.55811 z m 2.812916,3.67626 c -0.41052,-0.49465 -0.0071,-1.3058 0.649436,-1.3058 0.673095,0 1.087716,0.57141 0.853256,1.17593 -0.196721,0.50721 -1.123075,0.58727 -1.502692,0.12987 z M 12.45752,274.74595 c -0.349894,-0.34989 -0.389555,-1.22853 -0.06989,-1.5482 0.337398,-0.3374 1.178868,-0.27244 1.532482,0.11829 0.881778,0.97436 -0.534008,2.3585 -1.462597,1.42991 z"
       id="path4393"
       inkscape:connector-curvature="0" />
    <path
       style="display:inline;fill:#2d3335;stroke-width:0.18814972"
       d="m 7.2072467,281.50142 c -0.06899,-0.069 -0.125433,-0.40176 -0.125433,-0.73951 0,-0.49358 0.08307,-0.62588 0.423337,-0.6742 0.40873,-0.0581 0.425146,-0.13803 0.475788,-2.31802 0.05095,-2.19317 0.04017,-2.26327 -0.376299,-2.44594 -0.289955,-0.12718 -0.447221,-0.37775 -0.485806,-0.77402 -0.0511,-0.52482 0.0053,-0.59845 0.54093,-0.70557 0.328892,-0.0658 0.968405,-0.11959 1.42114,-0.11959 h 0.8231549 v 3.18546 c 0,3.16019 0.0034,3.18593 0.4233374,3.24558 0.340049,0.0483 0.434826,0.19893 0.481732,0.76568 l 0.0584,0.70556 H 9.1001012 c -0.9720815,0 -1.8238665,-0.0565 -1.8928545,-0.12543 z m 4.5043653,-0.17218 c -0.252308,-0.6575 -0.125857,-1.01943 0.356169,-1.01943 0.448856,0 0.470374,-0.0511 0.470374,-1.11582 0,-1.01389 -0.03867,-1.1213 -0.423336,-1.17593 -0.340049,-0.0483 -0.434826,-0.19894 -0.481732,-0.76568 l -0.05839,-0.70557 h 1.42248 1.422481 v 1.8815 1.8815 h 0.470374 c 0.412138,0 0.470374,0.0815 0.470374,0.65852 v 0.65852 h -1.767292 c -1.437973,0 -1.788573,-0.0555 -1.881497,-0.29761 z m 5.012874,0.17301 c -0.174324,-0.0704 -0.235187,-0.86989 -0.235187,-3.08962 0,-2.86928 -0.01576,-2.99472 -0.376299,-2.99472 -0.301968,0 -0.376299,-0.12543 -0.376299,-0.635 0,-0.56069 0.06881,-0.64877 0.587967,-0.7526 0.323382,-0.0647 0.916054,-0.11759 1.317049,-0.11759 h 0.72908 v 1.33717 c 0,1.20251 0.03316,1.32279 0.329261,1.19431 1.250055,-0.54243 2.648034,-0.12426 3.090887,0.92456 0.353811,0.83794 0.284474,2.56807 -0.128156,3.19782 -0.185612,0.28329 -0.574701,0.63774 -0.864642,0.78766 -0.638677,0.33028 -2.07807,0.35849 -2.38972,0.0468 -0.175607,-0.1756 -0.22578,-0.1756 -0.22578,0 0,0.22366 -0.985201,0.29202 -1.458161,0.10117 z m 3.412398,-2.20924 c 0.142114,-0.56623 -0.151805,-1.3991 -0.547298,-1.55086 -0.458873,-0.17609 -1.03064,0.47578 -1.03064,1.17503 0,1.18314 1.297738,1.49223 1.577938,0.37583 z m 2.749506,1.58125 c 0,-0.54354 0.0784,-0.7526 0.282225,-0.7526 0.223987,0 0.282224,-0.27178 0.282224,-1.31705 0,-1.01254 -0.06179,-1.31704 -0.267275,-1.31704 -0.2316,0 -0.633457,-1.06461 -0.456191,-1.20855 0.03572,-0.029 0.512648,-0.1384 1.059844,-0.2431 0.892558,-0.17079 1.014336,-0.15406 1.183835,0.16265 0.148221,0.27695 0.265653,0.31197 0.544965,0.16249 0.556904,-0.29805 1.552181,-0.22206 2.136374,0.16311 l 0.532635,0.35118 -0.596886,0.67981 c -0.485128,0.55253 -0.661802,0.64507 -0.943602,0.49426 -0.499008,-0.26707 -0.700428,-0.23289 -1.124053,0.19074 -0.235045,0.23505 -0.376299,0.62716 -0.376299,1.04461 0,0.56828 0.08167,0.69678 0.545601,0.85851 0.495581,0.17276 0.761851,0.60509 0.768878,1.24839 0.0019,0.17182 -0.478977,0.23518 -1.784853,0.23518 H 22.88639 Z m 7.228974,0.3958 c -0.422061,-0.19169 -0.949008,-0.57942 -1.17099,-0.86162 -0.823025,-1.04631 -0.713661,-2.77283 0.231909,-3.66115 1.386677,-1.30272 4.376356,-0.39826 4.114727,1.24481 -0.07903,0.4963 -0.268777,0.68924 -1.110228,1.1289 -1.090831,0.56995 -1.266038,0.81099 -0.592469,0.81508 1.15725,0.007 1.519953,0.44421 1.155805,1.39316 -0.160262,0.41764 -1.652883,0.38404 -2.628754,-0.0592 z m 1.425912,-3.61293 c 0,-0.19362 -0.577432,-0.22498 -1.019434,-0.0553 -0.163689,0.0628 -0.297613,0.31397 -0.297613,0.55811 v 0.44389 l 0.658523,-0.38853 c 0.362188,-0.2137 0.658524,-0.46485 0.658524,-0.55811 z"
       id="path4391"
       inkscape:connector-curvature="0" />
  </g>
</svg>
